<svg height="599" viewBox="0 0 578 599" width="578" xmlns="http://www.w3.org/2000/svg"><g fill="none" fill-rule="evenodd"><path d="m388.630561 178.829389 29.378305 14.500093-96.954606 45.559551-31.078652-14.63022zm138.432687-63.756087 30.660675 12.606742-63.113259 29.654832-29.331327-13.805948-.009347.008548z" fill="#02884f"/><path d="m321.053402 580.390423v-341.501361l236.6648-111.207295.000414 337.219805z" fill="#27b370"/><g fill-rule="nonzero"><path d="m527.85477 112.495444.233951.083822 30.660674 12.606742c1.07797.443229 1.638799 1.41803 1.669821 2.409094l-.003971 337.30647c0 .957169-.506681 1.836581-1.320777 2.319272l-.193235.104202-236.665215 115.488851c-1.731641.845013-3.740382-.345677-3.872374-2.2265l-.006872-.196974-.000491-339.791728-29.529209-13.900072c-2.00463-.943676-2.059812-3.735766-.180679-4.786843l.201292-.102375 98.654953-45.429423c.665024-.306236 1.422482-.32755 2.099115-.066277l.222312.097553 28.214464 13.924966 70.236404-33.004045-24.140293-11.362917c-2.00455-.943608-2.059879-3.735529-.180924-4.786735l.201274-.102389 61.780102-28.456136c.604882-.278611 1.288558-.322373 1.919678-.128558zm27.166803 350.720736v-331.287597l-231.273381 108.674157v335.470069zm-115.528601-100.001384.197864.225242.259321.331741 25.936637 35.587674c.12148.168679.231515.332198.353364.534319l.126649.216609.147222.28007c.551543 1.102572.814162 2.312603.774176 3.48813-.009191.628177-.103337 1.256732-.298389 1.923647l-.129267.405056-.172467.440409-26.832619 61.870036-.133455.293831-.11488.228699c-.630322 1.259753-1.528784 2.37108-2.594386 3.23908-.424638.356185-.879.674744-1.391532.970602l-.395751.21787-.407046.200117-52.214246 24.053815c-2.93712 1.355668-6.39283.617897-8.574668-1.816269l-.22109-.257845-.209245-.271966-25.272872-34.671393-.109652-.146837-.096784-.141703-.094935-.149287-.176374-.298022c-.062205-.105907-.115063-.201304-.132695-.239216-.854728-1.589834-1.110498-3.426096-.727581-5.156916.053143-.252495.119278-.503245.211378-.786513l.101235-.295375.161551-.406433 26.7222-61.619886.102134-.251835c.832767-1.904092 2.248668-3.488248 4.087202-4.54811l.373295-.204921.369732-.180838 53.183511-24.503813c2.47279-1.133031 5.371113-.536028 7.192463 1.440231zm87.174274-150.389097.485166.281219.419959.258223c13.585002 8.577508 13.933937 30.957108 1.63875 50.975241l-.376451.605871-.245457.384534-.021267.045273-.114898.191968-43.87295 66.896665c-.966653 1.476175-2.416723 2.524808-4.01178 2.960064-1.644868.496145-3.415048.381367-5.06142-.362861l-.350808-.169119-.343357-.191705-42.770028-25.618036c-3.764682-2.380656-6.597093-5.895787-8.384415-10.274424-4.690187-11.52002-1.695076-27.954437 7.819657-42.460742 12.392635-18.904162 32.230901-29.11961 46.531817-23.840519l.431653.164722.403077.164331.011346-.015632c8.414215-11.675228 19.855137-19.846461 30.819233-22.111599l.597547-.117681.596476-.10588c5.805725-.98159 11.238537-.220348 15.79815 2.340087zm-138.077583-31.009519-92.226067 42.467865 24.690337 11.62382 90.740224-42.639101zm138.533933-63.803596-55.453484 25.542472 22.940225 10.798652 56.421573-26.510562z" fill="#0b3521"/><path d="m557.718616 464.901572v-337.222984l-265.041302-109.0369303-22.293385-9.16663242 16.434249-6.77839606 287.567132 117.14687278v336.922154z" fill="#ff9a01"/><path d="m285.789965.20372196c.582052-.24007064 1.227292-.26800847 1.824207-.08357082l.221361.0791197 287.595262 117.15785216.153472.070668c.694988.340039 1.150095.913931 1.361152 1.558549.030864.09397.057093.190606.077968.289641l.032442.18602.022184.233172.003926.148329v336.922154c0 .957045-.506551 1.836363-1.320483 2.319097l-.193196.104215-16.666694 8.135916c-1.731665.84532-3.740695-.345354-3.872707-2.226322l-.006872-.19699-.000754-335.417527-263.369417-108.3483617-22.293384-9.1666325c-2.15503-.8861087-2.226155-3.86775752-.211168-4.89125984l.208452-.09567294zm285.898125 454.87672704v-330.991011l-11.273259 5.300225v331.193258zm-284.865169-449.47011192-9.357303 3.86022472 250.626074 103.1026262.066061.02861 29.485952 12.130786 10.025059-4.713708z" fill="#4c2d00"/><path d="m465.279337 143.528928-.008548.008548v-.008548l61.812383-28.45335-.017425-.008549-234.388105-96.4253713-61.365904 25.9447819-23.066668-9.493108-81.23653 33.4964615 24.089164 9.9053944-89.9823279 38.0493655 228.8557739 107.71426 98.659411-45.429424 29.38116 14.501698 76.649104-35.970509-.051618-.025973z" fill="#f0564c"/><path d="m494.660497 157.360578v31.520512l-76.648776 36.021797v-31.5718l76.597486-35.996482z" fill="#b53f34"/><path d="m293.478908 16.0668134.22468.0810031 234.388105 96.4253715.161717.072836.214479.114863c1.774619 1.049297 1.742442 3.657635-.057521 4.662835l-.199616.101422-56.547381 26.028564 24.209557 11.398008c1.014306.510383 1.506665 1.497409 1.483771 2.47286l.000427 31.456514c0 .970425-.520656 1.859715-1.352321 2.337699l-.197349.102852-76.648775 36.021798c-1.726746.8115-3.70217-.377039-3.836353-2.238585l-.007236-.201967-.000182-29.896285-26.725247-13.190422-97.490632 44.892061c-.57838.266325-1.22725.317355-1.832384.15357l-.224653-.071488-.219213-.091621-228.8557737-107.71426c-2.0420346-.961113-2.0515-3.82244-.1032261-4.829236l.2013504-.094359 84.0265534-35.5309594-18.108676-7.4460824c-2.083287-.8566417-2.219032-3.671566-.405457-4.7826588l.194564-.1087127.208473-.0956559 81.23653-33.4964615c.584743-.2411087 1.233129-.2680935 1.832142-.0809166l.222095.0802302 22.026622 9.0646398 60.329558-25.5063764c.589281-.2491412 1.245358-.2796902 1.851372-.0910799zm-.786773 5.4967821-60.33029 25.5066085c-.589386.2491852-1.245586.2796995-1.851683.0909833l-.224709-.0810461-22.040959-9.0711524-74.154606 30.5770786 18.033347 7.415108c2.07321.8524981 2.220579 3.6494338.424134 4.7708058l-.192774.1098785-.206646.0970339-84.420758 35.6975104 222.25618 104.607641 97.51931-44.904083c.591128-.272195 1.255286-.319273 1.870792-.142873l.228296.076622.222309.097554 28.216821 13.926263 70.231314-33.005533-23.940977-11.269074-.092402-.034084c-.820211-.339743-1.478234-1.071043-1.63109-2.051835l-.026151-.230701-.007433-.208825c0-.990596.533731-1.889886 1.382442-2.363307l.186608-.094807 56.190273-25.867227zm199.270415 140.0398595-71.254685 33.439691v25.611236l71.255731-33.486742zm-239.378325-43.132824.440054.080929c.569236.115378 1.12648.279662 1.701632.509808l.435189.185224 88.412971 42.667244c2.719289 1.39667 2.865032 5.164572.409198 6.810114l-.223443.139572-.148484.08022-.148204.074174-.149265.069095-21.236631 9.054681-40.70686 17.363831c-2.394105 1.018238-5.092469 1.056783-7.559162.099477l-.387474-.159432-.37522-.175133-66.494134-32.20748-21.164758-10.247578c-2.788848-1.345275-2.990646-5.17268-.514004-6.849035l.218845-.138311.149757-.081975.149344-.075707.154073-.072089 61.624889-26.497467c.572667-.238839 1.172333-.420605 1.741459-.533943 1.209789-.260637 2.452916-.29195 3.670228-.096219zm92.574955-60.577866c21.009733 11.143309 29.762682 28.536741 18.523096 40.5317262-1.915117 2.0628378-4.389712 3.8887208-7.394737 5.4610168-19.498951 10.181236-58.626415 7.391472-82.519922-5.2657778-9.079413-4.8174135-16.340211-11.3877191-20.559803-18.5110054-7.145637-12.1000596-4.617438-24.1831508 7.800637-30.6684158 18.769042-9.7999491 58.931044-4.9076825 84.150729 8.452456z" fill="#471916"/><path d="m37.5759269 105.462137 89.4326131-36.8723439 24.089164 9.9053944-89.9823279 38.0493655zm255.1017151-86.8204793-61.365904 25.9447819-23.064547-9.492507 62.136738-25.61890732z" fill="#ef476f"/><path d="m125.980675 66.0967422c.584493-.2409817 1.232574-.2680304 1.831375-.0810933l.222021.0801321 24.089164 9.9053944c2.1447.8818946 2.228453 3.844638.23136 4.8806843l-.206646.0970339-89.9823285 38.0493654c-.62747.265329-1.3289482.282183-1.9640923.05337l-.2347955-.097316-23.5394491-11.082416c-2.0518709-.966025-2.0483211-3.845459-.0823559-4.839801l.2031345-.09301zm1.027864 5.4084263-82.7555053 34.1204495 16.9213483 7.965843 82.917303-35.0615734zm142.347511-64.52318808c.584482-.24098121 1.232551-.26803691 1.831346-.08111292l.222018.0801269 22.293713 9.1666324c2.144803.8818906 2.228504 3.8447899.231281 4.8807689l-.206659.0970264-61.365904 25.9447819c-.589394.2491885-1.245603.2797002-1.851706.0909762l-.224711-.0810493-23.064547-9.492507c-2.154517-.8867188-2.224947-3.867981-.210014-4.8911014l.208444-.0956348zm1.02822 5.40903078-55.057079 22.7002248 15.970787 6.5730337 54.372134-22.9887641z" fill="#471521"/></g><path d="m2.69662921 452.470184v-332.626682l285.84006679 134.32909v342.085597z" fill="#2274a5"/><path d="m2.69662921 119.843502 34.87929769-14.381365 23.5394492 11.082416 259.9380259 122.344509v341.501361l-32.516706 15.867766v-342.085597z" fill="#0e547f"/><path d="m38.4923791 102.926002.2321912.096375 23.5391818 11.082291 260.0264059 122.387931.165903.093335c.548567.328341.922397.808942 1.122124 1.344748l.060634.182849c.048073.162108.081476.331611.098404.507362l.012808.268169v341.501361c0 .957165-.506678 1.836575-1.320771 2.319267l-.193234.104203-32.613001 15.912921-.162125.06562-.223125.071425-.211099.048615-.231565.033117-.169821.011149-.285877-.005712-.230684-.027682-.16149-.031547-.220864-.060212-.192906-.069574-.120128-.051897-285.92852956-143.830927c-.8453331-.425233-1.40103296-1.259228-1.47610573-2.19211l-.00870571-.216895v-332.745099l.01861906-.201369.02965605-.194362.05753478-.242789.01790663-.059545c.20110111-.650065.64988522-1.233509 1.34178754-1.583496l.2095106-.096376 34.87299174-14.378039c.6229005-.256833 1.3163179-.270093 1.9443727-.043107zm279.8635759 140.210178-27.122697 12.746966v336.057978l27.122697-13.236405zm-312.96269657-119.045393v326.716853l280.44674157 141.075506v-335.998987zm127.03519357 242.81819.140552.300955.132041.311472 15.622012 39.235122c.197923.502171.573745 1.007389.958476 1.3315l.164938.12728.188697.124782 34.860988 21.322093c2.016956 1.232173 3.487277 3.364803 3.908154 5.524332.405031 1.98149-.073632 3.926871-1.620399 5.11922l-.228253.165136-.288651.178284-.139971.078575-24.697373 12.912721 5.973418 37.813045c.874764 5.495543-4.587309 7.392509-8.594487 4.159689l-.209518-.174893-.20658-.184416-.212026-.203736-31.320052-31.204575-.146105-.118104c-.282746-.220854-.51297-.329895-.532191-.354778l-.098802-.006891-1.314708.08526-29.836863 2.027591c-.7591888.051493-1.520218-.064003-2.2056811-.313524-2.2046053-.761461-4.1513555-2.826761-4.9769367-5.13476-.2871824-.808999-.4320247-1.641399-.3983999-2.54235l.0254425-.390451.055407-.387122 5.9197914-32.382888-.001165-.041829c-.0046128-.229485-.0919031-.54428-.2362917-.834078l-.0932804-.169997-.1735681-.267909-25.231983-36.581181c-2.989601-4.336236-1.0998279-10.140362 4.2713324-8.968919l.2809161.066856.2623933.076407 34.5320722 10.965239 11.353782-18.042198 3.836113-6.109645c2.575516-4.12967 8.163717-1.800527 10.276759 2.488685zm36.272494-105.99126.317745.131343.29253.131354 19.57855 9.166422 55.366793 25.909552c4.025873 1.879501 7.234332 6.376592 7.597812 10.69643l.024141.369773.007771.38722-.189067 75.764412c-.013125 5.223214-4.473463 7.909069-9.374739 5.988932l-.277874-.11362-.295336-.132327-74.945743-35.084709c-1.810662-.845584-3.473307-2.223225-4.767794-3.895646-1.299968-1.654355-2.229003-3.559686-2.628429-5.450319-.085093-.392432-.145775-.786163-.183621-1.210582l-.030291-.435738-.010725-.45245.189047-75.772979c.013141-5.216469 4.475748-7.90132 9.32923-5.997068zm-116.5796966-60.764484c7.1498203.050919 14.8088054 1.951179 22.5775527 5.586857 29.0365279 13.590841 52.2443569 48.044405 52.1711579 77.639981-.020014 6.840535-1.278243 13.059015-3.742093 18.425081-8.647071 18.789074-30.1999727 23.943203-53.2594857 13.153727-29.0310984-13.588464-52.2354697-48.047902-52.1622629-77.647062.0573658-22.038194 13.2306418-36.753878 33.2201811-37.150941l.6078235-.007643zm-14.6192269-91.744694-28.1231461 11.595506 279.1564046 131.188315 26.181573-12.306068z" fill="#0a2231" fill-rule="nonzero"/><path d="m428.501352 366.302327 11.288559 15.481124c.335024.463904.584237.987975.730214 1.529142.180499.635855.214692 1.297354.111784 1.950305-.051618.39519-.163402.781832-.326804 1.159597l-26.829521 61.87255c-.120332.283405-.266309.558263-.429711.816024-.515194.893616-1.228311 1.6669-2.070309 2.259685-.369217.274857-.772955.506645-1.194119.70424l-48.109614 22.164832-11.185652-15.343366c-.077263-.111784-.154525-.223568-.22324-.335024-.060166-.103236-.120332-.197595-.17195-.300831-.523742-1.031045-.687144-2.199189-.463904-3.324593.068714-.326476.17195-.652951.309379-.970879l26.752258-61.692051c.730543-1.683996 2.06209-3.049736 3.72866-3.814471zm-298.305647 2.216615 15.618552 39.226387c.463905 1.177022 1.374288 2.259685 2.413881 2.895211l34.862202 21.322834c1.434783.87652 2.405661 2.397114 2.671971 3.763182.231787 1.133952-.025645 2.15612-.884739 2.611476l-25.188924 13.17015-5.060207-5.04311c-.635855-.626978-1.340095-1.065238-2.027568-1.262833-.326476-.102907-.652623-.145977-.962002-.120332l-31.159514 2.113378c-1.451879.094688-3.058613-1.125403-3.968996-2.645997-.567141-.944905-.867972-2.010143-.696021-2.9465l5.781872-31.57213.145977-.816024c.120333-.696021-.017096-1.529471-.386641-2.345495-.145977-.326476-.326476-.652952-.541167-.962002l-11.280011-16.357315 11.064991-17.585955 3.840444-6.116567c1.168145-1.873043 4.57033-.292283 5.7559 2.671642zm57.551104-95.72968 55.369011 25.910589c3.367663 1.572212 6.082375 5.601375 6.073867 9.00323l-.137469 54.312322-55.377559-25.918808c-.455357-.21502-.902164-.472453-1.331547-.781832-1.366069-.945234-2.560187-2.276781-3.402185-3.745757-.83345-1.443331-1.331547-3.015543-1.331547-4.47597zm323.571833-59.836433c.97055 9.450367-2.036116 21.091046-9.037751 31.984416h.008548l-43.882857 66.906783c-.326475.498426-.738762.910713-1.202666 1.237188-.781832.549715-1.718189.824573-2.663423.816403-.772955-.008926-1.546238-.21507-2.259356-.644781l-26.12528-15.652746c-4.21821-10.360751-1.692216-25.832998 7.577324-39.96515 12.654628-19.304143 33.15289-28.865965 46.004784-21.554951l.008877-.008548h.008219c8.608369-12.860771 20.704405-21.29719 31.563581-23.118614zm-459.2410177-7.405374c6.1941592.04307 13.0840107 1.683996 20.3348594 5.077304 27.1648734 12.714794 49.1321103 45.283118 49.0637173 72.739945-.017746 6.228681-1.168794 11.658105-3.247652 16.185693-6.203036-.043069-13.084339-1.683996-20.3351878-5.077303-27.1645447-12.714794-49.1317821-45.283118-49.0633885-72.748823.0174172-6.228352 1.1599174-11.657776 3.2476516-16.176816zm200.4109717-62.697123c.508683.103105 1.011686.261128 1.496046.478616l67.034567 32.34747-40.704241 17.362715c-1.958853.833121-4.192236.764406-6.090923-.180499l-66.494497-32.207655 40.481001-17.405457c.412286-.17195.841669-.300831 1.271381-.386641.996523-.214692 2.018691-.214692 3.006666-.008549zm91.408234-60.9187669c7.981391 4.2353057 14.089411 9.3642274 17.809194 14.6733189-1.675119 1.8039996-3.891734 3.453803-6.666612 4.905682-19.020409 9.931039-57.336413 6.752423-80.007891-5.2578022-8.857253-4.6992101-15.644197-10.9880572-19.501738-17.4998151 1.632378-1.9848269 3.857541-3.7717301 6.726778-5.2663505 19.020738-9.9313678 58.968791-3.5652581 81.640269 8.4449669z" fill="#fff"/></g></svg>