<svg height="570" viewBox="0 0 570 570" width="570" xmlns="http://www.w3.org/2000/svg"><g fill="none" fill-rule="evenodd" transform="translate(-30 -30)"><path d="m0 0h600v600h-600z" fill="none"/><path d="m121.363636 60h417.272728c33.8902 0 61.363636 27.4734358 61.363636 61.363636v417.272728c0 33.8902-27.473436 61.363636-61.363636 61.363636h-417.272728c-33.8902002 0-61.363636-27.473436-61.363636-61.363636v-417.272728c0-33.8902002 27.4734358-61.363636 61.363636-61.363636z" fill="#f7e8d5"/><path d="m79.0909091 30h441.8181819c27.11216 0 49.090909 21.9787486 49.090909 49.0909091v441.8181819c0 27.11216-21.978749 49.090909-49.090909 49.090909h-441.8181819c-27.1121605 0-49.0909091-21.978749-49.0909091-49.090909v-441.8181819c0-27.1121605 21.9787486-49.0909091 49.0909091-49.0909091z" fill="#fff9e9"/><g transform="translate(120 120)"><circle cx="81.818182" cy="81.818182" fill="#2274a5" r="81.818182"/><path d="m81.8181818 0c37.2470292 0 68.6808972 24.889103 78.5775422 58.9432469-14.925763-19.8921248-38.703305-32.7614287-65.4866331-32.7614287-45.1869341 0-81.8181818 36.6312477-81.8181818 81.8181818 0 7.939905 1.1309842 15.615654 3.24064 22.874935-10.25535279-13.668714-16.3315491-30.653148-16.3315491-49.0567532 0-45.1869341 36.6312477-81.8181818 81.8181818-81.8181818z" fill="#0e547f"/><path d="m26.1818182 196.363636h111.2727268c14.459819 0 26.181819 11.722 26.181819 26.181819v111.272727c0 14.459819-11.722 26.181818-26.181819 26.181818h-111.2727268c-14.4598189 0-26.1818182-11.721999-26.1818182-26.181818v-111.272727c0-14.459819 11.7219993-26.181819 26.1818182-26.181819z" fill="#27b370"/><path d="m137.454545 196.363636c14.459819 0 26.182933 11.722 26.182933 26.181819v3.503306c-3.648551-2.110813-7.853751-3.366433-12.341497-3.492756l-.750526-.01055h-111.2727277c-14.2876782 0-25.902335 11.444565-26.1768495 25.666575l-.0049687.515243.0005207 107.770367c-7.82605056-4.526885-13.0914298-12.988274-13.0914298-22.679458v-111.272727c0-14.459819 11.7219993-26.181819 26.1818182-26.181819z" fill="#02884f"/><g fill-rule="nonzero"><path d="m357.778967 135.261789-64.914082-125.85185361c-6.543064-12.54658052-22.728538-12.54658052-29.271602 0l-64.914083 125.85185361c-6.543064 12.546581 1.549673 28.374575 14.635801 28.374575h129.828165c12.913943 0 21.00668-15.63497 14.635801-28.374575z" fill="#f0564c"/><path d="m263.593283 9.40993539c6.466981-12.40069005 22.353435-12.54488412 29.039474-.43258221l.232128.43258221 64.914082 125.85185361c.56184 1.12349 1.011192 2.269497 1.354671 3.425313l-53.177844-103.0953484c-6.543064-12.5465805-22.728538-12.5465805-29.271602 0l-64.914083 125.8518534c-.343713.659084-.647039 1.327222-.911375 2.001646-11.472199-1.806452-18.144296-16.100384-12.390329-27.767909l.210795-.415555z" fill="#b53f34"/><path d="m299.540747 203.410178 45.779988 34.449761c12.818397 9.395389 17.701596 25.680731 12.818397 41.339713l-17.091196 55.119617c-4.883198 15.658982-18.922395 25.680731-34.792791 25.680731h-56.156786c-15.870396 0-29.299192-10.021749-34.792791-25.680731l-17.091196-55.119617c-4.883198-15.658982 0-31.944324 13.428797-41.339713l45.169589-34.449761c12.818396-9.395389 29.909592-9.395389 42.727989 0z" fill="#f5cb39"/><path d="m299.540747 203.410178 45.779988 34.449761c7.454254 5.463679 12.225025 13.257365 13.952195 21.902915l-40.095819-30.170857c-12.627078-9.25516-29.40036-9.393297-42.151204-.414411l-.576786.414411-45.169588 34.44976c-13.239659 9.26306-18.172746 25.223356-13.62932 40.677714l.200523.661999 15.69344 50.611546c-8.282291-4.314104-14.807834-11.89465-18.238608-21.673747l-17.091196-55.119617c-4.883198-15.658982 0-31.944324 13.428797-41.339713l45.169589-34.449761c12.818396-9.395389 29.909592-9.395389 42.727989 0z" fill="#b7982a"/></g></g></g></svg>